<svg width="40" height="40" viewBox="0 0 40 40" fill="none" xmlns="http://www.w3.org/2000/svg">
<rect width="40" height="40" rx="14" fill="#0D83DD"/>
<path d="M17.5181 10.1055C15.5889 10.3199 13.84 11.1603 12.4629 12.5338C11.231 13.7624 10.4698 15.2113 10.0979 17.0252C10.0166 17.4309 9.99917 18.2481 9.98174 23.7653L9.9585 30.0417L16.2223 30.0186C23.2298 30.0012 22.858 30.0186 24.206 29.5723C25.4321 29.1666 26.4257 28.5697 27.3495 27.6714C28.5988 26.466 29.3251 25.1852 29.7667 23.4292L29.9178 22.8207L29.9353 16.4283L29.9585 10.0417L23.9562 10.0475C20.6558 10.0533 17.7563 10.0765 17.5181 10.1055ZM19.5518 13.8957C19.5808 14.8404 19.5866 14.9157 19.6505 14.7013C19.7551 14.3651 20.127 13.8146 20.4292 13.5538C20.5686 13.4321 20.8708 13.2408 21.0916 13.1365C21.6436 12.8699 22.1549 12.8178 23.8516 12.8351L25.2171 12.8525L25.2345 13.4263C25.2461 13.8783 25.2229 14.0927 25.1299 14.3999C24.8917 15.1765 24.2351 15.8835 23.4623 16.1907C23.1369 16.324 23.0497 16.3298 21.3414 16.3472L19.5518 16.3646V17.5236V18.6769L21.5448 18.6885L23.532 18.7059V20.0968V21.4877L21.5448 21.5051L19.5518 21.5167L19.5401 24.3738L19.5227 27.2252H17.8957H16.2688L16.2513 20.0968C16.2455 16.1733 16.2513 12.9337 16.2688 12.8931C16.2862 12.8351 16.6465 12.8236 17.9074 12.8351L19.5227 12.8525L19.5518 13.8957Z" fill="white"/>
</svg>
