<svg width="40" height="40" viewBox="0 0 40 40" fill="none" xmlns="http://www.w3.org/2000/svg">
<rect x="0.5" y="0.5" width="39" height="39" rx="13.5" fill="white"/>
<rect x="0.5" y="0.5" width="39" height="39" rx="13.5" stroke="#E2E8F0"/>
<path d="M9.92427 28.7541H13.6364V19.739L8.33337 15.7617V27.1632C8.33337 28.0421 9.0453 28.7541 9.92427 28.7541Z" fill="#4285F4"/>
<path d="M26.3636 28.7541H30.0757C30.9547 28.7541 31.6666 28.0421 31.6666 27.1632V15.7617L26.3636 19.739V28.7541Z" fill="#34A853"/>
<path d="M26.3636 12.8452V19.7391L31.6666 15.7618V13.6406C31.6666 11.6745 29.4221 10.5516 27.8485 11.7316L26.3636 12.8452Z" fill="#FBBC04"/>
<path fill-rule="evenodd" clip-rule="evenodd" d="M13.6359 19.7391V12.8452L19.9995 17.6179L26.3631 12.8452V19.7391L19.9995 24.5118L13.6359 19.7391Z" fill="#EA4335"/>
<path d="M8.33337 13.6406V15.7618L13.6364 19.7391V12.8452L12.1515 11.7316C10.5779 10.5516 8.33337 11.6745 8.33337 13.6406Z" fill="#C5221F"/>
</svg>
