<svg width="48" height="48" viewBox="0 0 48 48" fill="none" xmlns="http://www.w3.org/2000/svg">
<g clip-path="url(#clip0)">
<path d="M46.1823 19.8271L26.6036 19.8262C25.739 19.8262 25.0382 20.5269 25.0382 21.3914V27.646C25.0382 28.5103 25.739 29.2112 26.6035 29.2112H37.629C36.4217 32.3444 34.1683 34.9684 31.2934 36.6356L35.9947 44.774C43.5361 40.4125 47.9947 32.7597 47.9947 24.193C47.9947 22.9733 47.9048 22.1013 47.725 21.1195C47.5883 20.3735 46.9406 19.8271 46.1823 19.8271Z" fill="#167EE6"/>
<path d="M23.9978 38.6084C18.6022 38.6084 13.8918 35.6603 11.3619 31.2979L3.22388 35.9885C7.36528 43.1662 15.1235 47.9997 23.9978 47.9997C28.3513 47.9997 32.4592 46.8275 35.9978 44.7848V44.7737L31.2966 36.6352C29.1461 37.8825 26.6576 38.6084 23.9978 38.6084Z" fill="#12B347"/>
<path d="M35.9974 44.7853V44.7742L31.2962 36.6357C29.1457 37.8829 26.6574 38.6089 23.9974 38.6089V48.0002C28.3509 48.0002 32.4589 46.8281 35.9974 44.7853Z" fill="#0F993E"/>
<path d="M9.39021 23.9996C9.39021 21.34 10.116 18.8518 11.363 16.7014L3.22493 12.0107C1.17096 15.5383 -0.00109863 19.635 -0.00109863 23.9996C-0.00109863 28.3642 1.17096 32.4609 3.22493 35.9884L11.363 31.2977C10.116 29.1474 9.39021 26.6592 9.39021 23.9996Z" fill="#FFD500"/>
<path d="M23.9978 9.39132C27.5164 9.39132 30.7483 10.6416 33.2727 12.7212C33.8955 13.2342 34.8007 13.1972 35.3711 12.6267L39.8027 8.19516C40.4499 7.54791 40.4038 6.48844 39.7124 5.88863C35.4829 2.21934 29.9797 0 23.9978 0C15.1235 0 7.36528 4.83347 3.22388 12.0112L11.3619 16.7018C13.8918 12.3394 18.6022 9.39132 23.9978 9.39132Z" fill="#FF4B26"/>
<path d="M33.2723 12.7212C33.8951 13.2342 34.8004 13.1972 35.3707 12.6267L39.8023 8.19516C40.4494 7.54791 40.4033 6.48844 39.712 5.88863C35.4825 2.21925 29.9793 0 23.9974 0V9.39131C27.5159 9.39131 30.7479 10.6416 33.2723 12.7212Z" fill="#D93F21"/>
</g>
<defs>
<clipPath id="clip0">
<rect width="48" height="48" fill="white"/>
</clipPath>
</defs>
</svg>
