<svg width="48" height="48" viewBox="0 0 48 48" fill="none" xmlns="http://www.w3.org/2000/svg">
<rect x="0.5" y="0.5" width="47" height="47" rx="13.9" stroke="#E5E7EB"/>
<path d="M36.3044 36H30.4269C29.8391 36 29.4473 35.5072 29.4473 35.0143V22.2C29.4473 21.6086 29.9371 21.2143 30.4269 21.2143H36.3044C36.8922 21.2143 37.284 21.7072 37.284 22.2V35.0143C37.284 35.5072 36.7942 36 36.3044 36Z" fill="#5A54EC"/>
<path d="M26.5083 36H20.6307C20.043 36 19.6511 35.5071 19.6511 35.0143V17.2714C19.6511 16.68 20.1409 16.2857 20.6307 16.2857H22.6879C25.3328 16.2857 27.4879 18.4543 27.4879 21.0171V35.0143C27.4879 35.5071 26.9981 36 26.5083 36Z" fill="#5A54EC"/>
<path d="M16.7124 36H10.8348C10.2471 36 9.85522 35.5071 9.85522 35.0143V27.1285C9.85522 26.5371 10.345 26.1428 10.8348 26.1428H16.7124C17.3001 26.1428 17.692 26.6357 17.692 27.1285V35.0143C17.692 35.5071 17.2022 36 16.7124 36Z" fill="#7D77E4"/>
</svg>
