<svg width="2964" height="869" viewBox="0 0 2964 869" fill="none" xmlns="http://www.w3.org/2000/svg">
<path d="M251.874 267.98C315.43 226.294 400.745 244.024 442.431 307.581L482.724 369.013L528.342 308.143C573.924 247.327 660.174 234.973 720.995 280.548L726.558 284.937C782.539 331.493 792.757 414.287 748.603 473.211L597.354 675.031C586.857 694.601 571.464 711.904 551.588 724.94C488.032 766.626 402.717 748.896 361.031 685.34L212.274 458.539C170.588 394.982 188.317 309.666 251.874 267.98ZM680.658 334.373C649.561 311.073 605.473 317.388 582.167 348.48L521.954 428.825L591.189 534.382C595.714 541.282 599.538 548.438 602.68 555.766L694.779 432.874C718.08 401.775 711.755 357.678 680.658 334.373ZM744.545 154.277C765.633 126.138 805.54 120.422 833.679 141.51C861.818 162.598 867.534 202.504 846.446 230.643C825.358 258.782 785.451 264.499 757.312 243.411C729.173 222.323 723.457 182.416 744.545 154.277ZM144.475 126.478C173.879 107.193 213.349 115.395 232.634 144.798C251.92 174.202 243.718 213.673 214.314 232.959C184.91 252.244 145.439 244.042 126.154 214.638C106.868 185.235 115.071 145.764 144.475 126.478Z" fill="#0099FF"/>
<path d="M2668.49 752.416C2657.29 752.416 2648.25 749.525 2641.39 743.745C2634.53 737.964 2630.19 730.377 2628.38 720.984C2626.94 711.59 2628.56 701.655 2633.26 691.178L2669.57 612.598V651.617L2576.9 439.724C2572.2 428.885 2570.58 418.769 2572.02 409.376C2573.83 399.982 2578.71 392.576 2586.66 387.157C2594.6 381.376 2605.44 378.486 2619.17 378.486C2630.73 378.486 2639.95 381.195 2646.81 386.615C2654.04 391.673 2660.54 401.789 2666.32 416.963L2720.51 557.864H2702.09L2759.53 416.421C2765.31 401.608 2771.81 391.673 2779.04 386.615C2786.63 381.195 2796.74 378.486 2809.39 378.486C2820.23 378.486 2828.9 381.376 2835.4 387.157C2841.9 392.576 2845.88 399.982 2847.32 409.376C2848.77 418.769 2847.14 428.885 2842.45 439.724L2719.43 716.107C2712.92 730.558 2705.7 740.132 2697.75 744.829C2690.16 749.887 2680.41 752.416 2668.49 752.416Z" fill="#0099FF"/>
<path d="M2538.42 655.953C2503.74 655.953 2478.09 646.741 2461.47 628.315C2445.21 609.528 2437.08 581.348 2437.08 543.774V311.83C2437.08 295.933 2441.24 283.83 2449.55 275.52C2457.86 267.211 2469.6 263.056 2484.77 263.056C2500.31 263.056 2512.23 267.211 2520.54 275.52C2529.21 283.83 2533.55 295.933 2533.55 311.83V540.523C2533.55 553.89 2536.07 563.645 2541.13 569.787C2546.55 575.929 2553.42 579 2561.73 579C2564.25 579 2566.78 578.819 2569.31 578.458C2572.2 577.735 2575.27 577.193 2578.52 576.832C2584.67 576.832 2589.18 579.18 2592.07 583.877C2595.32 588.574 2596.95 598.148 2596.95 612.599C2596.95 625.244 2594.42 634.818 2589.36 641.321C2584.31 647.463 2576.54 651.437 2566.06 653.244C2563.17 653.605 2559.02 654.147 2553.6 654.87C2548.18 655.592 2543.12 655.953 2538.42 655.953Z" fill="#0099FF"/>
<path d="M2248.85 655.95C2228.26 655.95 2210.02 652.156 2194.12 644.569C2178.58 636.982 2166.3 626.685 2157.27 613.679C2148.6 600.312 2144.26 585.138 2144.26 568.157C2144.26 548.648 2149.32 533.293 2159.44 522.093C2169.55 510.894 2185.81 502.945 2208.21 498.249C2230.61 493.191 2260.41 490.662 2297.63 490.662H2327.43V536.184H2297.63C2283.54 536.184 2271.8 537.267 2262.4 539.435C2253.37 541.242 2246.69 544.313 2242.35 548.648C2238.02 552.622 2235.85 557.861 2235.85 564.364C2235.85 572.673 2238.74 579.538 2244.52 584.957C2250.66 590.376 2259.33 593.086 2270.53 593.086C2279.56 593.086 2287.51 591.099 2294.38 587.125C2301.6 583.151 2307.38 577.731 2311.72 570.867C2316.05 563.641 2318.22 555.332 2318.22 545.938V483.075C2318.22 470.068 2314.79 460.856 2307.92 455.436C2301.42 450.017 2290.04 447.308 2273.78 447.308C2265.11 447.308 2255.36 448.391 2244.52 450.559C2233.68 452.366 2221.58 455.798 2208.21 460.856C2198.45 464.469 2190.14 465.01 2183.28 462.481C2176.42 459.952 2171 455.617 2167.02 449.475C2163.41 443.333 2161.6 436.65 2161.6 429.424C2161.96 422.198 2164.31 415.334 2168.65 408.831C2173.35 402.328 2180.39 397.27 2189.78 393.657C2207.13 387.154 2223.02 382.818 2237.47 380.651C2252.29 378.483 2265.83 377.399 2278.12 377.399C2307.74 377.399 2332.13 381.734 2351.28 390.405C2370.79 398.715 2385.24 411.721 2394.63 429.424C2404.39 446.766 2409.26 469.165 2409.26 496.623V606.092C2409.26 621.989 2405.47 634.092 2397.88 642.401C2390.3 650.711 2379.28 654.866 2364.83 654.866C2350.01 654.866 2338.63 650.711 2330.68 642.401C2323.1 634.092 2319.3 621.989 2319.3 606.092V592.002L2322.56 599.589C2320.75 611.15 2316.59 621.086 2310.09 629.395C2303.59 637.705 2295.1 644.208 2284.62 648.904C2274.14 653.601 2262.22 655.95 2248.85 655.95Z" fill="#0099FF"/>
<path d="M1951.25 655.953C1928.49 655.953 1908.26 650.353 1890.55 639.154C1873.21 627.954 1859.48 611.877 1849.37 590.922C1839.61 569.968 1834.74 545.22 1834.74 516.678C1834.74 487.414 1839.61 462.485 1849.37 441.892C1859.48 421.299 1873.21 405.402 1890.55 394.203C1908.26 383.003 1928.49 377.403 1951.25 377.403C1971.12 377.403 1989 382.1 2004.9 391.493C2020.8 400.886 2031.46 412.989 2036.88 427.802H2030.91V311.83C2030.91 295.933 2035.07 283.83 2043.38 275.52C2051.69 267.211 2063.61 263.056 2079.15 263.056C2094.32 263.056 2106.06 267.211 2114.37 275.52C2123.04 283.83 2127.38 295.933 2127.38 311.83V606.096C2127.38 621.993 2123.22 634.096 2114.91 642.405C2106.96 650.715 2095.22 654.87 2079.69 654.87C2064.51 654.87 2052.77 650.715 2044.46 642.405C2036.15 634.096 2032 621.993 2032 606.096V575.206L2037.96 601.761C2032.9 618.018 2022.24 631.205 2005.99 641.321C1990.09 651.076 1971.84 655.953 1951.25 655.953ZM1982.14 584.961C1991.9 584.961 2000.57 582.613 2008.15 577.916C2015.74 572.858 2021.52 565.452 2025.49 555.697C2029.83 545.581 2032 532.575 2032 516.678C2032 492.472 2027.3 475.13 2017.91 464.653C2008.51 453.815 1996.59 448.395 1982.14 448.395C1972.39 448.395 1963.72 450.744 1956.13 455.44C1948.54 460.137 1942.58 467.543 1938.24 477.659C1933.91 487.414 1931.74 500.42 1931.74 516.678C1931.74 540.523 1936.44 557.865 1945.83 568.703C1955.22 579.542 1967.33 584.961 1982.14 584.961Z" fill="#0099FF"/>
<path d="M1593.34 654.866C1578.16 654.866 1566.42 650.711 1558.11 642.401C1549.8 634.092 1545.65 621.989 1545.65 606.092V426.714C1545.65 411.179 1549.62 399.257 1557.57 390.947C1565.88 382.638 1577.62 378.483 1592.8 378.483C1607.97 378.483 1619.53 382.638 1627.48 390.947C1635.43 399.257 1639.4 411.179 1639.4 426.714V452.185L1633.44 429.966C1642.11 412.985 1654.4 399.979 1670.29 390.947C1686.55 381.915 1704.98 377.399 1725.57 377.399C1746.88 377.399 1764.41 381.554 1778.14 389.863C1791.86 397.812 1802.16 410.456 1809.03 427.798C1815.89 444.779 1819.32 466.275 1819.32 492.287V606.092C1819.32 621.989 1815.17 634.092 1806.86 642.401C1798.55 650.711 1786.63 654.866 1771.09 654.866C1755.55 654.866 1743.63 650.711 1735.32 642.401C1727.01 634.092 1722.86 621.989 1722.86 606.092V496.081C1722.86 479.823 1719.97 468.262 1714.19 461.398C1708.77 454.533 1700.64 451.101 1689.8 451.101C1675.35 451.101 1663.79 455.798 1655.12 465.191C1646.45 474.223 1642.11 486.507 1642.11 502.042V606.092C1642.11 638.608 1625.85 654.866 1593.34 654.866Z" fill="#0099FF"/>
<path d="M1417.41 655.95C1384.89 655.95 1356.71 650.35 1332.87 639.15C1309.38 627.589 1291.32 611.331 1278.67 590.376C1266.03 569.422 1259.71 544.674 1259.71 516.132C1259.71 488.675 1265.67 464.649 1277.59 444.056C1289.87 423.101 1306.49 406.844 1327.45 395.283C1348.76 383.36 1372.97 377.399 1400.07 377.399C1419.94 377.399 1438 380.65 1454.26 387.154C1470.52 393.295 1484.43 402.508 1495.99 414.792C1507.55 426.714 1516.22 441.166 1522 458.146C1528.14 475.126 1531.21 494.094 1531.21 515.048C1531.21 522.274 1529.23 527.693 1525.25 531.306C1521.28 534.558 1514.95 536.184 1506.28 536.184H1340.45V490.662H1460.76L1452.09 497.707C1452.09 484.339 1450.28 473.501 1446.67 465.191C1443.06 456.882 1437.64 450.559 1430.41 446.224C1423.55 441.888 1414.88 439.721 1404.4 439.721C1393.2 439.721 1383.45 442.43 1375.14 447.849C1367.19 452.907 1361.05 460.494 1356.71 470.61C1352.38 480.726 1350.21 493.371 1350.21 508.545V513.423C1350.21 539.074 1355.81 557.499 1367.01 568.699C1378.57 579.538 1396.27 584.957 1420.12 584.957C1428.07 584.957 1437.1 584.054 1447.21 582.247C1457.69 580.08 1467.63 577.189 1477.02 573.577C1486.41 569.964 1494.54 569.422 1501.41 571.951C1508.27 574.119 1513.51 578.093 1517.12 583.873C1521.1 589.292 1523.26 595.615 1523.63 602.841C1523.99 609.705 1522.36 616.569 1518.75 623.434C1515.14 629.937 1509.17 634.995 1500.86 638.608C1488.22 644.388 1474.67 648.724 1460.22 651.614C1446.13 654.504 1431.86 655.95 1417.41 655.95Z" fill="#0099FF"/>
<path d="M1139.67 654.87C1123.78 654.87 1111.49 650.535 1102.82 641.864C1094.15 632.832 1089.82 620.367 1089.82 604.471V349.223H1004.73C991.366 349.223 981.069 345.791 973.843 338.927C966.979 331.701 963.547 321.585 963.547 308.579C963.547 295.211 966.979 285.095 973.843 278.231C981.069 271.366 991.366 267.934 1004.73 267.934H1274.61C1287.98 267.934 1298.1 271.366 1304.96 278.231C1312.19 285.095 1315.8 295.211 1315.8 308.579C1315.8 321.585 1312.19 331.701 1304.96 338.927C1298.1 345.791 1287.98 349.223 1274.61 349.223H1189.53V604.471C1189.53 620.367 1185.38 632.832 1177.07 641.864C1168.76 650.535 1156.29 654.87 1139.67 654.87Z" fill="#0099FF"/>
</svg>
