<svg width="2964" height="868" viewBox="0 0 2964 868" fill="none" xmlns="http://www.w3.org/2000/svg">
<path d="M251.873 267.695C315.43 226.009 400.745 243.738 442.431 307.294L482.724 368.727L528.342 307.857C573.924 247.041 660.174 234.687 720.995 280.262L726.558 284.651C782.539 331.206 792.756 414.001 748.603 472.924L597.354 674.745C586.857 694.315 571.464 711.618 551.588 724.654C488.032 766.34 402.717 748.61 361.031 685.054L212.274 458.252C170.588 394.696 188.318 309.381 251.873 267.695ZM680.658 334.086C649.561 310.787 605.473 317.102 582.166 348.194L521.954 428.539L591.189 534.096C595.714 540.995 599.538 548.152 602.68 555.48L694.779 432.587C718.08 401.489 711.755 357.391 680.658 334.086ZM744.545 153.992C765.633 125.853 805.54 120.136 833.679 141.224C861.818 162.312 867.534 202.219 846.446 230.358C825.358 258.497 785.451 264.213 757.312 243.125C729.173 222.036 723.458 182.131 744.545 153.992ZM144.475 126.192C173.879 106.907 213.349 115.11 232.634 144.513C251.92 173.917 243.718 213.387 214.314 232.672C184.91 251.958 145.439 243.756 126.154 214.352C106.868 184.948 115.071 145.478 144.475 126.192Z" fill="black"/>
<path d="M2668.48 752.129C2657.28 752.129 2648.24 749.239 2641.38 743.458C2634.52 737.678 2630.18 730.091 2628.37 720.697C2626.93 711.304 2628.56 701.369 2633.25 690.891L2669.56 612.312V651.331L2576.89 439.437C2572.19 428.599 2570.57 418.483 2572.01 409.089C2573.82 399.696 2578.7 392.29 2586.65 386.87C2594.59 381.09 2605.43 378.199 2619.16 378.199C2630.72 378.199 2639.94 380.909 2646.8 386.328C2654.03 391.386 2660.53 401.502 2666.31 416.676L2720.5 557.577H2702.08L2759.52 416.134C2765.3 401.322 2771.8 391.386 2779.03 386.328C2786.62 380.909 2796.73 378.199 2809.38 378.199C2820.22 378.199 2828.89 381.09 2835.39 386.87C2841.89 392.29 2845.87 399.696 2847.31 409.089C2848.76 418.483 2847.13 428.599 2842.44 439.437L2719.42 715.82C2712.92 730.272 2705.69 739.846 2697.74 744.542C2690.15 749.6 2680.4 752.129 2668.48 752.129Z" fill="black"/>
<path d="M2538.41 655.667C2503.73 655.667 2478.08 646.454 2461.46 628.029C2445.2 609.242 2437.07 581.062 2437.07 543.488V311.543C2437.07 295.647 2441.23 283.544 2449.53 275.234C2457.84 266.925 2469.59 262.77 2484.76 262.77C2500.3 262.77 2512.22 266.925 2520.53 275.234C2529.2 283.544 2533.53 295.647 2533.53 311.543V540.237C2533.53 553.604 2536.06 563.359 2541.12 569.501C2546.54 575.642 2553.4 578.713 2561.71 578.713C2564.24 578.713 2566.77 578.533 2569.3 578.171C2572.19 577.449 2575.26 576.907 2578.51 576.546C2584.66 576.546 2589.17 578.894 2592.06 583.591C2595.31 588.287 2596.94 597.861 2596.94 612.313C2596.94 624.958 2594.41 634.532 2589.35 641.035C2584.29 647.177 2576.53 651.151 2566.05 652.957C2563.16 653.319 2559 653.861 2553.58 654.583C2548.17 655.306 2543.11 655.667 2538.41 655.667Z" fill="black"/>
<path d="M2248.84 655.663C2228.25 655.663 2210 651.869 2194.11 644.282C2178.57 636.695 2166.29 626.399 2157.25 613.393C2148.58 600.025 2144.25 584.851 2144.25 567.871C2144.25 548.361 2149.31 533.007 2159.42 521.807C2169.54 510.607 2185.8 502.659 2208.2 497.962C2230.6 492.904 2260.4 490.375 2297.61 490.375H2327.42V535.897H2297.61C2283.52 535.897 2271.78 536.981 2262.39 539.149C2253.36 540.955 2246.67 544.026 2242.34 548.361C2238 552.335 2235.83 557.574 2235.83 564.077C2235.83 572.387 2238.72 579.251 2244.5 584.67C2250.65 590.09 2259.32 592.799 2270.52 592.799C2279.55 592.799 2287.5 590.812 2294.36 586.838C2301.59 582.864 2307.37 577.445 2311.7 570.58C2316.04 563.355 2318.21 555.045 2318.21 545.652V482.788C2318.21 469.782 2314.77 460.569 2307.91 455.15C2301.41 449.731 2290.03 447.021 2273.77 447.021C2265.1 447.021 2255.34 448.105 2244.5 450.272C2233.67 452.079 2221.56 455.511 2208.2 460.569C2198.44 464.182 2190.13 464.724 2183.27 462.195C2176.4 459.666 2170.98 455.33 2167.01 449.189C2163.4 443.047 2161.59 436.363 2161.59 429.137C2161.95 421.912 2164.3 415.047 2168.63 408.544C2173.33 402.041 2180.38 396.983 2189.77 393.37C2207.11 386.867 2223.01 382.532 2237.46 380.364C2252.27 378.196 2265.82 377.112 2278.1 377.112C2307.73 377.112 2332.12 381.448 2351.26 390.119C2370.77 398.428 2385.23 411.434 2394.62 429.137C2404.37 446.479 2409.25 468.879 2409.25 496.336V605.806C2409.25 621.702 2405.46 633.805 2397.87 642.115C2390.28 650.424 2379.26 654.579 2364.81 654.579C2350 654.579 2338.62 650.424 2330.67 642.115C2323.08 633.805 2319.29 621.702 2319.29 605.806V591.715L2322.54 599.302C2320.74 610.864 2316.58 620.799 2310.08 629.108C2303.57 637.418 2295.08 643.921 2284.61 648.618C2274.13 653.315 2262.21 655.663 2248.84 655.663Z" fill="black"/>
<path d="M1951.24 655.667C1928.48 655.667 1908.25 650.067 1890.55 638.867C1873.2 627.667 1859.47 611.59 1849.36 590.636C1839.6 569.681 1834.73 544.933 1834.73 516.392C1834.73 487.128 1839.6 462.199 1849.36 441.606C1859.47 421.013 1873.2 405.116 1890.55 393.916C1908.25 382.716 1928.48 377.116 1951.24 377.116C1971.11 377.116 1989 381.813 2004.89 391.207C2020.79 400.6 2031.45 412.703 2036.87 427.516H2030.9V311.543C2030.9 295.647 2035.06 283.544 2043.37 275.234C2051.68 266.925 2063.6 262.77 2079.14 262.77C2094.31 262.77 2106.05 266.925 2114.36 275.234C2123.03 283.544 2127.37 295.647 2127.37 311.543V605.81C2127.37 621.706 2123.21 633.809 2114.9 642.119C2106.95 650.428 2095.21 654.583 2079.68 654.583C2064.5 654.583 2052.76 650.428 2044.45 642.119C2036.14 633.809 2031.99 621.706 2031.99 605.81V574.92L2037.95 601.474C2032.89 617.732 2022.23 630.919 2005.98 641.035C1990.08 650.79 1971.83 655.667 1951.24 655.667ZM1982.13 584.675C1991.89 584.675 2000.56 582.326 2008.14 577.629C2015.73 572.571 2021.51 565.165 2025.48 555.41C2029.82 545.294 2031.99 532.288 2031.99 516.392C2031.99 492.186 2027.29 474.844 2017.9 464.367C2008.5 453.528 1996.58 448.109 1982.13 448.109C1972.38 448.109 1963.71 450.457 1956.12 455.154C1948.53 459.851 1942.57 467.257 1938.23 477.373C1933.9 487.128 1931.73 500.134 1931.73 516.392C1931.73 540.236 1936.43 557.578 1945.82 568.417C1955.22 579.255 1967.32 584.675 1982.13 584.675Z" fill="black"/>
<path d="M1593.32 654.579C1578.15 654.579 1566.41 650.424 1558.1 642.115C1549.79 633.805 1545.63 621.702 1545.63 605.806V426.428C1545.63 410.892 1549.61 398.97 1557.56 390.66C1565.87 382.351 1577.61 378.196 1592.78 378.196C1607.96 378.196 1619.52 382.351 1627.47 390.66C1635.41 398.97 1639.39 410.892 1639.39 426.428V451.898L1633.43 429.679C1642.1 412.699 1654.38 399.693 1670.28 390.66C1686.54 381.628 1704.96 377.112 1725.55 377.112C1746.87 377.112 1764.39 381.267 1778.12 389.577C1791.85 397.525 1802.15 410.17 1809.01 427.512C1815.88 444.492 1819.31 465.988 1819.31 492.001V605.806C1819.31 621.702 1815.15 633.805 1806.84 642.115C1798.53 650.424 1786.61 654.579 1771.08 654.579C1755.54 654.579 1743.62 650.424 1735.31 642.115C1727 633.805 1722.84 621.702 1722.84 605.806V495.794C1722.84 479.537 1719.95 467.975 1714.17 461.111C1708.75 454.247 1700.63 450.814 1689.79 450.814C1675.34 450.814 1663.77 455.511 1655.1 464.905C1646.43 473.937 1642.1 486.22 1642.1 501.756V605.806C1642.1 638.321 1625.84 654.579 1593.32 654.579Z" fill="black"/>
<path d="M1417.39 655.663C1384.88 655.663 1356.7 650.063 1332.85 638.863C1309.37 627.302 1291.31 611.044 1278.66 590.09C1266.02 569.135 1259.69 544.387 1259.69 515.846C1259.69 488.388 1265.65 464.363 1277.58 443.769C1289.86 422.815 1306.48 406.557 1327.43 394.996C1348.75 383.073 1372.96 377.112 1400.05 377.112C1419.92 377.112 1437.99 380.364 1454.25 386.867C1470.5 393.009 1484.41 402.222 1495.97 414.505C1507.53 426.428 1516.21 440.879 1521.99 457.859C1528.13 474.84 1531.2 493.807 1531.2 514.762C1531.2 521.988 1529.21 527.407 1525.24 531.02C1521.26 534.271 1514.94 535.897 1506.27 535.897H1340.44V490.375H1460.75L1452.08 497.42C1452.08 484.053 1450.27 473.214 1446.66 464.905C1443.05 456.595 1437.63 450.272 1430.4 445.937C1423.54 441.602 1414.87 439.434 1404.39 439.434C1393.19 439.434 1383.43 442.144 1375.12 447.563C1367.18 452.621 1361.03 460.208 1356.7 470.324C1352.36 480.44 1350.2 493.085 1350.2 508.259V513.136C1350.2 538.787 1355.8 557.213 1366.99 568.413C1378.56 579.251 1396.26 584.67 1420.1 584.67C1428.05 584.67 1437.08 583.767 1447.2 581.961C1457.68 579.793 1467.61 576.903 1477.01 573.29C1486.4 569.677 1494.53 569.135 1501.39 571.664C1508.26 573.832 1513.5 577.806 1517.11 583.587C1521.08 589.006 1523.25 595.328 1523.61 602.554C1523.97 609.418 1522.35 616.283 1518.73 623.147C1515.12 629.65 1509.16 634.708 1500.85 638.321C1488.21 644.102 1474.66 648.437 1460.21 651.327C1446.12 654.218 1431.85 655.663 1417.39 655.663Z" fill="black"/>
<path d="M1139.66 654.584C1123.76 654.584 1111.48 650.248 1102.81 641.577C1094.14 632.545 1089.8 620.081 1089.8 604.184V348.937H1004.72C991.354 348.937 981.057 345.505 973.832 338.64C966.967 331.414 963.535 321.298 963.535 308.292C963.535 294.925 966.967 284.809 973.832 277.944C981.057 271.08 991.354 267.648 1004.72 267.648H1274.6C1287.97 267.648 1298.08 271.08 1304.95 277.944C1312.17 284.809 1315.79 294.925 1315.79 308.292C1315.79 321.298 1312.17 331.414 1304.95 338.64C1298.08 345.505 1287.97 348.937 1274.6 348.937H1189.52V604.184C1189.52 620.081 1185.36 632.545 1177.05 641.577C1168.74 650.248 1156.28 654.584 1139.66 654.584Z" fill="black"/>
</svg>
