<svg width="2964" height="869" viewBox="0 0 2964 869" fill="none" xmlns="http://www.w3.org/2000/svg">
<path d="M251.887 268.336C315.444 226.65 400.759 244.38 442.445 307.936L482.737 369.367L528.354 308.499C573.936 247.683 660.187 235.329 721.008 280.904L726.57 285.293C782.551 331.848 792.769 414.643 748.615 473.566L597.369 675.384C586.872 694.955 571.479 712.259 551.602 725.296C488.046 766.982 402.73 749.252 361.044 685.695L212.287 458.894C170.601 395.337 188.331 310.022 251.887 268.336ZM680.671 334.729C649.574 311.429 605.486 317.743 582.179 348.836L521.968 429.18L591.202 534.738C595.727 541.637 599.551 548.792 602.693 556.12L694.791 433.229C718.092 402.131 711.768 358.034 680.671 334.729ZM744.557 154.633C765.645 126.494 805.552 120.777 833.691 141.865C861.83 162.953 867.546 202.86 846.459 230.999C825.371 259.138 785.464 264.854 757.325 243.767C729.186 222.679 723.469 182.772 744.557 154.633ZM144.474 126.835C173.878 107.549 213.349 115.752 232.635 145.155C251.92 174.559 243.718 214.03 214.314 233.315C184.91 252.601 145.44 244.399 126.154 214.995C106.869 185.591 115.071 146.121 144.474 126.835Z" fill="white"/>
<path d="M2668.49 752.771C2657.29 752.771 2648.26 749.881 2641.4 744.1C2634.53 738.319 2630.2 730.732 2628.39 721.339C2626.94 711.946 2628.57 702.01 2633.27 691.533L2669.58 612.954V651.972L2576.91 440.079C2572.21 429.24 2570.58 419.124 2572.03 409.731C2573.84 400.338 2578.71 392.931 2586.66 387.512C2594.61 381.731 2605.45 378.841 2619.18 378.841C2630.74 378.841 2639.95 381.551 2646.82 386.97C2654.04 392.028 2660.54 402.144 2666.32 417.318L2720.52 558.219H2702.09L2759.54 416.776C2765.32 401.963 2771.82 392.028 2779.05 386.97C2786.63 381.551 2796.75 378.841 2809.39 378.841C2820.23 378.841 2828.9 381.731 2835.41 387.512C2841.91 392.931 2845.88 400.338 2847.33 409.731C2848.77 419.124 2847.15 429.24 2842.45 440.079L2719.43 716.462C2712.93 730.913 2705.7 740.487 2697.76 745.184C2690.17 750.242 2680.41 752.771 2668.49 752.771Z" fill="white"/>
<path d="M2538.42 656.309C2503.74 656.309 2478.09 647.096 2461.47 628.67C2445.21 609.883 2437.08 581.703 2437.08 544.13V312.185C2437.08 296.288 2441.24 284.185 2449.55 275.876C2457.86 267.566 2469.6 263.411 2484.77 263.411C2500.31 263.411 2512.23 267.566 2520.54 275.876C2529.21 284.185 2533.55 296.288 2533.55 312.185V540.878C2533.55 554.246 2536.08 564 2541.13 570.142C2546.55 576.284 2553.42 579.355 2561.73 579.355C2564.26 579.355 2566.79 579.174 2569.31 578.813C2572.2 578.09 2575.28 577.549 2578.53 577.187C2584.67 577.187 2589.18 579.536 2592.08 584.232C2595.33 588.929 2596.95 598.503 2596.95 612.954C2596.95 625.599 2594.42 635.173 2589.37 641.677C2584.31 647.818 2576.54 651.793 2566.06 653.599C2563.17 653.96 2559.02 654.502 2553.6 655.225C2548.18 655.947 2543.12 656.309 2538.42 656.309Z" fill="white"/>
<path d="M2248.85 656.305C2228.26 656.305 2210.02 652.511 2194.12 644.924C2178.58 637.337 2166.3 627.04 2157.27 614.034C2148.6 600.667 2144.26 585.493 2144.26 568.512C2144.26 549.003 2149.32 533.648 2159.44 522.448C2169.55 511.249 2185.81 503.3 2208.21 498.604C2230.61 493.546 2260.41 491.017 2297.63 491.017H2327.43V536.539H2297.63C2283.54 536.539 2271.8 537.622 2262.4 539.79C2253.37 541.597 2246.69 544.667 2242.35 549.003C2238.02 552.977 2235.85 558.216 2235.85 564.719C2235.85 573.028 2238.74 579.893 2244.52 585.312C2250.66 590.731 2259.33 593.441 2270.53 593.441C2279.56 593.441 2287.51 591.454 2294.38 587.48C2301.6 583.506 2307.38 578.086 2311.72 571.222C2316.05 563.996 2318.22 555.687 2318.22 546.293V483.43C2318.22 470.423 2314.79 461.211 2307.92 455.791C2301.42 450.372 2290.04 447.663 2273.78 447.663C2265.11 447.663 2255.36 448.746 2244.52 450.914C2233.68 452.721 2221.58 456.153 2208.21 461.211C2198.45 464.824 2190.14 465.365 2183.28 462.836C2176.42 460.307 2171 455.972 2167.02 449.83C2163.41 443.688 2161.6 437.005 2161.6 429.779C2161.96 422.553 2164.31 415.689 2168.65 409.186C2173.35 402.683 2180.39 397.625 2189.78 394.012C2207.13 387.509 2223.02 383.173 2237.47 381.005C2252.29 378.838 2265.83 377.754 2278.12 377.754C2307.74 377.754 2332.13 382.089 2351.28 390.76C2370.79 399.07 2385.24 412.076 2394.63 429.779C2404.39 447.121 2409.26 469.52 2409.26 496.978V606.447C2409.26 622.344 2405.47 634.447 2397.88 642.756C2390.3 651.066 2379.28 655.221 2364.83 655.221C2350.01 655.221 2338.63 651.066 2330.68 642.756C2323.1 634.447 2319.3 622.344 2319.3 606.447V592.357L2322.56 599.944C2320.75 611.505 2316.59 621.44 2310.09 629.75C2303.59 638.06 2295.1 644.563 2284.62 649.259C2274.14 653.956 2262.22 656.305 2248.85 656.305Z" fill="white"/>
<path d="M1951.25 656.309C1928.49 656.309 1908.26 650.709 1890.56 639.509C1873.22 628.309 1859.49 612.232 1849.37 591.277C1839.62 570.323 1834.74 545.575 1834.74 517.033C1834.74 487.769 1839.62 462.841 1849.37 442.247C1859.49 421.654 1873.22 405.758 1890.56 394.558C1908.26 383.358 1928.49 377.758 1951.25 377.758C1971.13 377.758 1989.01 382.455 2004.91 391.848C2020.8 401.242 2031.46 413.345 2036.88 428.157H2030.92V312.185C2030.92 296.288 2035.07 284.185 2043.38 275.876C2051.69 267.566 2063.61 263.411 2079.15 263.411C2094.32 263.411 2106.07 267.566 2114.37 275.876C2123.05 284.185 2127.38 296.288 2127.38 312.185V606.451C2127.38 622.348 2123.23 634.451 2114.92 642.76C2106.97 651.07 2095.23 655.225 2079.69 655.225C2064.52 655.225 2052.78 651.07 2044.47 642.76C2036.16 634.451 2032 622.348 2032 606.451V575.561L2037.96 602.116C2032.9 618.374 2022.25 631.561 2005.99 641.677C1990.09 651.431 1971.85 656.309 1951.25 656.309ZM1982.14 585.316C1991.9 585.316 2000.57 582.968 2008.16 578.271C2015.74 573.213 2021.52 565.807 2025.5 556.052C2029.83 545.936 2032 532.93 2032 517.033C2032 492.827 2027.3 475.486 2017.91 465.008C2008.52 454.17 1996.6 448.75 1982.14 448.75C1972.39 448.75 1963.72 451.099 1956.13 455.796C1948.54 460.492 1942.58 467.899 1938.25 478.015C1933.91 487.769 1931.75 500.775 1931.75 517.033C1931.75 540.878 1936.44 558.22 1945.84 569.058C1955.23 579.897 1967.33 585.316 1982.14 585.316Z" fill="white"/>
<path d="M1593.34 655.221C1578.17 655.221 1566.42 651.066 1558.11 642.756C1549.81 634.447 1545.65 622.344 1545.65 606.447V427.069C1545.65 411.534 1549.62 399.612 1557.57 391.302C1565.88 382.993 1577.62 378.838 1592.8 378.838C1607.97 378.838 1619.53 382.993 1627.48 391.302C1635.43 399.612 1639.4 411.534 1639.4 427.069V452.54L1633.44 430.321C1642.11 413.34 1654.4 400.334 1670.29 391.302C1686.55 382.27 1704.98 377.754 1725.57 377.754C1746.89 377.754 1764.41 381.909 1778.14 390.218C1791.87 398.166 1802.16 410.811 1809.03 428.153C1815.89 445.134 1819.32 466.63 1819.32 492.642V606.447C1819.32 622.344 1815.17 634.447 1806.86 642.756C1798.55 651.066 1786.63 655.221 1771.09 655.221C1755.56 655.221 1743.63 651.066 1735.32 642.756C1727.02 634.447 1722.86 622.344 1722.86 606.447V496.436C1722.86 480.178 1719.97 468.617 1714.19 461.753C1708.77 454.888 1700.64 451.456 1689.8 451.456C1675.35 451.456 1663.79 456.153 1655.12 465.546C1646.45 474.578 1642.11 486.862 1642.11 502.397V606.447C1642.11 638.963 1625.86 655.221 1593.34 655.221Z" fill="white"/>
<path d="M1417.41 656.305C1384.89 656.305 1356.71 650.705 1332.87 639.505C1309.39 627.944 1291.32 611.686 1278.68 590.731C1266.03 569.777 1259.71 545.029 1259.71 516.487C1259.71 489.03 1265.67 465.004 1277.59 444.411C1289.88 423.456 1306.5 407.199 1327.45 395.637C1348.77 383.715 1372.97 377.754 1400.07 377.754C1419.94 377.754 1438 381.005 1454.26 387.509C1470.52 393.65 1484.43 402.863 1495.99 415.147C1507.55 427.069 1516.22 441.521 1522 458.501C1528.14 475.481 1531.21 494.449 1531.21 515.403C1531.21 522.629 1529.23 528.048 1525.25 531.661C1521.28 534.913 1514.96 536.539 1506.29 536.539H1340.46V491.017H1460.76L1452.09 498.062C1452.09 484.694 1450.29 473.856 1446.67 465.546C1443.06 457.237 1437.64 450.914 1430.42 446.579C1423.55 442.243 1414.88 440.076 1404.4 440.076C1393.2 440.076 1383.45 442.785 1375.14 448.204C1367.19 453.262 1361.05 460.849 1356.71 470.965C1352.38 481.081 1350.21 493.726 1350.21 508.9V513.778C1350.21 539.429 1355.81 557.854 1367.01 569.054C1378.57 579.893 1396.27 585.312 1420.12 585.312C1428.07 585.312 1437.1 584.409 1447.22 582.602C1457.69 580.435 1467.63 577.544 1477.02 573.932C1486.42 570.319 1494.54 569.777 1501.41 572.306C1508.27 574.474 1513.51 578.448 1517.12 584.228C1521.1 589.647 1523.27 595.97 1523.63 603.196C1523.99 610.06 1522.36 616.924 1518.75 623.789C1515.14 630.292 1509.18 635.35 1500.87 638.963C1488.22 644.743 1474.67 649.079 1460.22 651.969C1446.13 654.859 1431.86 656.305 1417.41 656.305Z" fill="white"/>
<path d="M1139.68 655.225C1123.78 655.225 1111.49 650.89 1102.82 642.219C1094.15 633.187 1089.82 620.723 1089.82 604.826V349.578H1004.74C991.368 349.578 981.071 346.146 973.845 339.282C966.981 332.056 963.549 321.94 963.549 308.934C963.549 295.566 966.981 285.45 973.845 278.586C981.071 271.722 991.368 268.289 1004.74 268.289H1274.62C1287.98 268.289 1298.1 271.722 1304.96 278.586C1312.19 285.45 1315.8 295.566 1315.8 308.934C1315.8 321.94 1312.19 332.056 1304.96 339.282C1298.1 346.146 1287.98 349.578 1274.62 349.578H1189.53V604.826C1189.53 620.723 1185.38 633.187 1177.07 642.219C1168.76 650.89 1156.29 655.225 1139.68 655.225Z" fill="white"/>
</svg>
