<svg width="1497" height="1303" viewBox="0 0 1497 1303" fill="none" xmlns="http://www.w3.org/2000/svg">
<path d="M338.849 371.548C447.865 300.113 594.225 330.525 665.752 439.477L734.889 544.789L813.142 440.466C891.349 336.214 1039.32 315.021 1143.64 393.128L1153.19 400.65C1249.21 480.438 1266.72 622.352 1190.97 723.36L932.055 1068.53C914.045 1102.41 887.491 1132.37 853.119 1154.89C744.103 1226.33 597.744 1195.92 526.217 1086.96L270.97 698.167C199.443 589.216 229.833 442.984 338.849 371.548ZM1074.43 485.395C1021.09 445.464 945.458 456.297 905.47 509.596L802.184 647.292L920.998 828.274C928.741 840.068 935.288 852.299 940.672 864.825L1098.64 654.23C1138.62 600.919 1127.78 525.335 1074.43 485.395ZM1184.07 176.715C1220.26 128.477 1288.72 118.671 1336.99 154.813C1385.26 190.955 1395.06 259.359 1358.88 307.597C1322.69 355.836 1254.23 365.642 1205.96 329.5C1157.69 293.358 1147.89 224.954 1184.07 176.715ZM154.619 129.017C205.058 95.9665 272.773 110.038 305.866 160.446C338.96 210.854 324.899 278.51 274.461 311.561C224.023 344.612 156.308 330.541 123.214 280.133C90.1207 229.725 104.181 162.068 154.619 129.017Z" fill="#0099FF"/>
</svg>
