<svg width="40" height="40" fill="none" xmlns="http://www.w3.org/2000/svg"><rect x=".5" y=".5" width="39" height="39" rx="13.5" fill="#fff"/><rect x=".5" y=".5" width="39" height="39" rx="13.5" stroke="#E2E8F0"/><g clip-path="url(#a)"><path d="M30.595 20.5a.48.48 0 0 0-.228-.413h-.003l-.009-.005-7.425-4.41a.994.994 0 0 0-1.113 0l-7.425 4.41-.01.005a.486.486 0 0 0 .012.832l7.426 4.41a.994.994 0 0 0 1.113 0l7.425-4.41a.48.48 0 0 0 .237-.419Z" fill="#0A2767"/><path d="M15.257 17.555h4.873v4.482h-4.873v-4.482ZM29.6 13v-2.05a.928.928 0 0 0-.904-.95H16.05a.928.928 0 0 0-.903.95V13l7.475 2 6.977-2Z" fill="#0364B8"/><path d="M15.147 13h4.983v4.5h-4.983V13Z" fill="#0078D4"/><path d="M25.113 13H20.13v4.5l4.983 4.5H29.6v-4.5L25.113 13Z" fill="#28A8EA"/><path d="M20.13 17.5h4.983V22H20.13v-4.5Z" fill="#0078D4"/><path d="M20.13 22h4.983v4.5H20.13V22Z" fill="#0364B8"/><path d="M15.257 22.037h4.873v4.074h-4.873v-4.074Z" fill="#14447D"/><path d="M25.113 22H29.6v4.5h-4.486V22Z" fill="#0078D4"/><path d="m30.367 20.892-.01.005-7.425 4.19a1.03 1.03 0 0 1-.502.156l-.406-.238a1.037 1.037 0 0 1-.1-.058L14.4 20.638h-.004l-.246-.138v8.482A1.023 1.023 0 0 0 15.178 30h14.405c.009 0 .016-.004.025-.004.12-.008.237-.032.349-.073a1.352 1.352 0 0 0 .23-.133 1.01 1.01 0 0 0 .408-.808V20.5a.45.45 0 0 1-.228.392Z" fill="url(#b)"/><path opacity=".5" d="M30.197 20.466v.52l-7.765 5.364-8.038-5.709a.005.005 0 0 0-.005-.004l-.737-.445v-.375l.304-.006.643.37.014.005.055.035s7.555 4.326 7.575 4.335l.29.17c.024-.01.049-.02.079-.03.015-.01 7.5-4.235 7.5-4.235l.085.006Z" fill="#0A2767"/><path d="m30.367 20.892-.01.005-7.425 4.19a1.038 1.038 0 0 1-1.113 0l-7.425-4.19-.01-.005a.45.45 0 0 1-.234-.392v8.482A1.023 1.023 0 0 0 15.178 30h14.39a1.023 1.023 0 0 0 1.027-1.018V20.5a.45.45 0 0 1-.228.392Z" fill="#1490DF"/><path opacity=".1" d="m23.04 25.025-.11.062a1.029 1.029 0 0 1-.491.16l2.824 3.353 4.928 1.191c.135-.102.242-.236.313-.391l-7.464-4.375Z" fill="#000"/><path opacity=".05" d="m23.544 24.741-.615.346a1.03 1.03 0 0 1-.491.16l1.323 3.663 6.431.88c.254-.19.403-.49.403-.808v-.11l-7.051-4.131Z" fill="#000"/><path d="M15.192 30h14.374c.221.001.437-.069.616-.2l-8.158-4.794a1.025 1.025 0 0 1-.1-.058L14.4 20.639h-.003l-.246-.139v8.453c0 .578.466 1.046 1.042 1.047Z" fill="#28A8EA"/><path opacity=".1" d="M21.127 14.916v10.665a.92.92 0 0 1-.573.85.855.855 0 0 1-.34.07H14.15V14.5h.997V14h5.068c.503.002.91.411.912.916Z" fill="#000"/><path opacity=".2" d="M20.628 15.416v10.665a.817.817 0 0 1-.074.35.908.908 0 0 1-.837.569H14.15V14.5h5.566a.836.836 0 0 1 .414.105.91.91 0 0 1 .498.811Z" fill="#000"/><path opacity=".2" d="M20.628 15.416v9.665a.921.921 0 0 1-.912.919H14.15V14.5h5.566a.836.836 0 0 1 .414.105.91.91 0 0 1 .498.811Z" fill="#000"/><path opacity=".2" d="M20.13 15.416v9.665a.918.918 0 0 1-.912.919H14.15V14.5h5.068c.504 0 .912.41.912.916Z" fill="#000"/><path d="M10.08 14.5h9.137c.504 0 .913.41.913.916v9.168a.915.915 0 0 1-.913.916H10.08a.915.915 0 0 1-.913-.916v-9.168c0-.506.409-.916.913-.916Z" fill="url(#c)"/><path d="M12.022 18.344a2.663 2.663 0 0 1 1.043-1.156 3.147 3.147 0 0 1 1.658-.417 2.928 2.928 0 0 1 1.534.395c.438.262.791.646 1.016 1.105.244.506.366 1.063.355 1.625a3.775 3.775 0 0 1-.366 1.7c-.23.476-.594.873-1.046 1.144a3.045 3.045 0 0 1-1.592.406 2.993 2.993 0 0 1-1.568-.4 2.68 2.68 0 0 1-1.029-1.107 3.493 3.493 0 0 1-.36-1.606c-.01-.582.111-1.16.355-1.689Zm1.112 2.715c.12.304.323.568.587.761.268.188.59.285.917.277.348.014.692-.087.979-.286a1.66 1.66 0 0 0 .57-.76c.125-.34.186-.7.182-1.062a3.24 3.24 0 0 0-.172-1.075 1.7 1.7 0 0 0-.552-.793 1.513 1.513 0 0 0-.97-.3 1.578 1.578 0 0 0-.939.28 1.738 1.738 0 0 0-.598.767 3.06 3.06 0 0 0-.004 2.192Z" fill="#fff"/><path d="M25.113 13H29.6v4.5h-4.486V13Z" fill="#50D9FF"/></g><defs><linearGradient id="b" x1="22.373" y1="20.5" x2="22.373" y2="30" gradientUnits="userSpaceOnUse"><stop stop-color="#35B8F1"/><stop offset="1" stop-color="#28A8EA"/></linearGradient><linearGradient id="c" x1="11.071" y1="13.784" x2="18.261" y2="26.195" gradientUnits="userSpaceOnUse"><stop stop-color="#1784D9"/><stop offset=".5" stop-color="#107AD5"/><stop offset="1" stop-color="#0A63C9"/></linearGradient><clipPath id="a"><path fill="#fff" d="M9.167 10h21.429v20H9.166z"/></clipPath></defs></svg>