<svg width="48" height="48" viewBox="0 0 48 48" fill="none" xmlns="http://www.w3.org/2000/svg">
<rect x="0.5" y="0.5" width="47" height="47" rx="13.9" stroke="#E5E7EB"/>
<path d="M17.9973 35.1428C15.1688 35.1428 12.8545 32.8285 12.8545 30C12.8545 27.1714 15.1688 24.8571 17.9973 24.8571H22.2831C22.7116 24.8571 23.1402 25.2 23.1402 25.7143V34.2857C23.1402 34.7143 22.7973 35.1428 22.2831 35.1428H17.9973Z" fill="#7D77E4"/>
<path d="M12.8545 18C12.8545 15.1714 15.1688 12.8571 17.9973 12.8571C20.8259 12.8571 23.1402 15.1714 23.1402 18V22.2857C23.1402 22.7143 22.7973 23.1428 22.2831 23.1428H13.7116C13.2831 23.1428 12.8545 22.8 12.8545 22.2857V18Z" fill="#5A54EC"/>
<path d="M29.9973 12.8571C32.8259 12.8571 35.1402 15.1714 35.1402 18C35.1402 20.8285 32.8259 23.1428 29.9973 23.1428H25.7116C25.2831 23.1428 24.8545 22.8 24.8545 22.2857V13.7143C24.8545 13.2857 25.1973 12.8571 25.7116 12.8571H29.9973Z" fill="#5A54EC"/>
<path d="M35.1402 30C35.1402 32.8285 32.8259 35.1428 29.9973 35.1428C27.1688 35.1428 24.8545 32.8285 24.8545 30V25.7143C24.8545 25.2857 25.1973 24.8571 25.7116 24.8571H34.2831C34.7116 24.8571 35.1402 25.2 35.1402 25.7143V30Z" fill="#5A54EC"/>
</svg>
