<svg width="28" height="28" viewBox="0 0 28 28" fill="none" xmlns="http://www.w3.org/2000/svg">
<path fill-rule="evenodd" clip-rule="evenodd" d="M23.9271 4.06584C21.2953 1.44525 17.7951 0.00132957 14.0656 0C6.3808 0 0.126494 6.21909 0.12382 13.8635C0.122483 16.3072 0.764894 18.6925 1.98487 20.7946L0.00683594 27.9796L7.39756 26.0517C9.43374 27.1566 11.7266 27.7383 14.0596 27.739H14.0656C21.7491 27.739 28.0042 21.5192 28.0068 13.8748C28.0082 10.17 26.5595 6.6871 23.9271 4.0665V4.06584ZM14.0656 25.3975H14.061C11.982 25.3969 9.94248 24.8411 8.163 23.7914L7.73983 23.5415L3.35392 24.6856L4.52443 20.4329L4.24901 19.9968C3.0892 18.162 2.4762 16.0413 2.47754 13.8642C2.48022 7.51078 7.67832 2.34138 14.0704 2.34138C17.1654 2.34271 20.0747 3.54266 22.2626 5.72117C24.4505 7.89902 25.6544 10.7949 25.6531 13.8735C25.6504 20.2275 20.4524 25.3969 14.0656 25.3969V25.3975ZM20.4216 16.7673C20.0733 16.5938 18.3607 15.7561 18.0411 15.6405C17.7216 15.5248 17.4896 15.467 17.2576 15.814C17.0257 16.161 16.3579 16.9415 16.1547 17.1721C15.9514 17.4035 15.7482 17.4321 15.3999 17.2585C15.0517 17.085 13.9293 16.7194 12.5984 15.5394C11.5629 14.6206 10.8636 13.4866 10.6604 13.1395C10.4572 12.7925 10.6391 12.605 10.8128 12.4329C10.9692 12.2773 11.1611 12.028 11.3356 11.8259C11.5101 11.6238 11.5676 11.4789 11.6838 11.2482C11.8002 11.0168 11.742 10.8148 11.6551 10.6412C11.5682 10.4677 10.8717 8.76253 10.5809 8.06918C10.2981 7.39377 10.0107 7.48551 9.79743 7.47421C9.59419 7.46424 9.36226 7.46225 9.12963 7.46225C8.89699 7.46225 8.51993 7.54867 8.20041 7.89569C7.8809 8.24267 6.9811 9.08097 6.9811 10.7855C6.9811 12.49 8.22919 14.1381 8.40365 14.3694C8.5781 14.6008 10.8603 18.0995 14.3544 19.6006C15.1854 19.9576 15.8345 20.171 16.3405 20.3306C17.1748 20.5945 17.9341 20.5573 18.5344 20.4682C19.2036 20.3685 20.5954 19.6299 20.8855 18.8208C21.1756 18.0117 21.1756 17.3177 21.0887 17.1734C21.0019 17.0292 20.7692 16.9421 20.4209 16.7686L20.4216 16.7673Z" fill="white"/>
</svg>
